<svg height="512pt" viewBox="0 -16 512 511" width="512pt" xmlns="http://www.w3.org/2000/svg"><path d="m122.6875 399.414062c-3.753906-1.75-8.21875-.125-9.96875 3.628907l-12.621094 27.0625c-1.75 3.753906-.125 8.21875 3.628906 9.96875 1.023438.476562 2.101563.703125 3.164063.703125 2.824219 0 5.53125-1.601563 6.800781-4.332032l12.621094-27.0625c1.75-3.753906.125-8.21875-3.625-9.96875zm202.039062-150.402343c-2.570312-2.246094-5.140624-4.957031-7.859374-7.824219-12.160157-12.828125-28.671876-30.253906-60.867188-16.757812-32.191406-13.492188-48.703125 3.929687-60.867188 16.757812-2.71875 2.867188-5.285156 5.578125-7.859374 7.824219-4.167969 3.640625-6.046876 9.042969-5.027344 14.457031 1.015625 5.394531 4.71875 9.734375 9.910156 11.605469 6.394531 2.304687 12.730469 3.230469 18.867188 3.230469 15.695312 0 30.046874-6.054688 40.539062-10.480469 1.609375-.679688 3.09375-1.304688 4.4375-1.847657 1.347656.542969 2.828125 1.167969 4.441406 1.847657 14.589844 6.15625 36.640625 15.453125 59.40625 7.25 5.1875-1.871094 8.894532-6.210938 9.910156-11.605469 1.015626-5.414062-.863281-10.816406-5.03125-14.457031zm-9.964843 11.949219c-17.253907 6.21875-35.308594-1.394532-48.492188-6.957032-2.78125-1.171875-5.40625-2.28125-7.726562-3.117187-1.644531-.589844-3.441407-.589844-5.085938 0-2.320312.835937-4.945312 1.945312-7.726562 3.117187-13.183594 5.5625-31.242188 13.179688-48.488281 6.957032-.136719-.046876-.226563-.09375-.257813-.269532-.039063-.195312.050781-.289062.15625-.382812 3.105469-2.710938 6.039063-5.808594 8.878906-8.800782 8.417969-8.882812 16.027344-16.910156 28.324219-16.910156 5.1875 0 11.210938 1.429688 18.476562 4.828125 2.015626.941407 4.339844.941407 6.355469 0 24.496094-11.453125 34.832031-.546875 46.804688 12.082031 2.839843 2.992188 5.773437 6.089844 8.878906 8.800782.105469.09375.191406.1875.15625.382812-.035156.175782-.121094.222656-.253906.269532zm33.050781-81.117188c-4.144531 0-7.5 3.355469-7.5 7.5v15.242188c0 4.140624 3.355469 7.5 7.5 7.5 4.140625 0 7.5-3.359376 7.5-7.5v-15.242188c0-4.144531-3.359375-7.5-7.5-7.5zm50.496094 256.601562c1.273437 2.730469 3.976562 4.332032 6.800781 4.332032 1.0625 0 2.140625-.226563 3.164063-.703125 3.753906-1.75 5.378906-6.214844 3.628906-9.96875l-12.621094-27.0625c-1.75-3.753907-6.210938-5.378907-9.964844-3.628907s-5.378906 6.214844-3.628906 9.96875zm63.058594-299.035156c-2.824219-12.542968-7.496094-25.714844-14.554688-38.859375.929688-2.488281 1.441406-5.179687 1.441406-7.988281v-20.429688c0-4.140624-3.355468-7.5-7.5-7.5-4.144531 0-7.5 3.359376-7.5 7.5v20.429688c0 1.535156-.449218 2.960938-1.210937 4.171875-.039063.0625-.074219.121094-.109375.183594-1.414063 2.113281-3.820313 3.507812-6.542969 3.507812h-10.238281c-41.105469-15.515625-82.863282-21.03125-121.289063-22.824219v-60.101562h97.875c16.019531 0 30.332031 8.953125 37.351563 23.367188 1.8125 3.726562 6.304687 5.277343 10.027344 3.460937 3.722656-1.8125 5.273437-6.304687 3.457031-10.027344-9.550781-19.613281-29.03125-31.800781-50.835938-31.800781h-271.472656c-31.164063 0-56.519531 25.355469-56.519531 56.519531v33.542969c0 2.808594.511718 5.5 1.441406 7.988281-7.058594 13.144531-11.730469 26.316407-14.554688 38.859375-30.476562 9.605469-50.632812 33.730469-50.632812 61.25 0 33.675782 30.148438 63.339844 68.109375 68.015625 11.207031 25.570313 29.757813 49.121094 54.835937 69.035157 8.128907 6.453124 16.761719 12.347656 25.738282 17.648437-5.917969 5.359375-11.429688 11.152344-16.492188 17.332031l-1.359375-.636718c-6.730469-3.136719-14.28125-3.46875-21.257812-.925782-6.980469 2.539063-12.550781 7.644532-15.6875 14.375l-22.152344 47.503906c-4.585937 9.832032-.316406 21.5625 9.519531 26.148438l20.460938 9.539062c5.015625 7.949219 13.671875 12.792969 23.230468 12.792969h14.4375c4.144532 0 7.5-3.359375 7.5-7.5s-3.355468-7.5-7.5-7.5h-12.207031c1.644531-1.609375 3.035157-3.53125 4.0625-5.738281l22.148438-47.503906c5.496093-11.78125 1.988281-25.492188-7.679688-33.335938 5.195313-6.085937 10.882813-11.746094 17.003907-16.898437 27.542968 13.835937 57.453124 22.101562 85.789062 23.359375v80.117187h-73.074219c-4.144531 0-7.5 3.359375-7.5 7.5 0 4.144531 3.355469 7.5 7.5 7.5h211.628907c9.558593 0 18.21875-4.84375 23.230468-12.789062l20.460938-9.542969c9.835937-4.585938 14.105468-16.316406 9.519531-26.148438l-22.152344-47.503906c-3.136719-6.730468-8.707031-11.835937-15.6875-14.375-6.976562-2.539062-14.527343-2.210937-21.257812.925782l-1.359375.636718c-5.0625-6.179687-10.574219-11.972656-16.492188-17.332031 8.976563-5.296875 17.609375-11.195313 25.738282-17.648437 25.078124-19.914063 43.628906-43.464844 54.835937-69.03125 37.960937-4.679688 68.109375-34.34375 68.109375-68.019532 0-27.519531-20.15625-51.644531-50.632812-61.25zm-321.574219 267.5-22.148438 47.503906c-1.09375 2.335938-3.882812 3.351563-6.21875 2.261719l-23.832031-11.113281c-2.339844-1.089844-3.355469-3.878906-2.265625-6.214844l22.152344-47.503906c1.445312-3.101562 4.007812-5.449219 7.222656-6.621094 3.214844-1.167968 6.6875-1.015625 9.789063.429688l9.109374 4.246094c6.394532 2.984374 9.171876 10.613281 6.191407 17.011718zm93.347656-389.410156h45.722656v59.570312c-7.800781-.191406-15.433593-.261718-22.863281-.261718s-15.0625.070312-22.859375.261718zm-7.5 74.8125c.1875 0 .371094-.011719.554687-.027344 10.222657-.359375 20.1875-.476562 29.804688-.476562s19.582031.117187 29.804688.476562c.183593.015625.367187.027344.554687.027344.03125 0 .0625-.003906.089844-.003906 36.710937 1.332031 76.734375 5.839844 116.046875 19.476562-8.53125 12.566406-17.902344 21.503906-29.039063 27.789063-14.769531 8.335937-33.585937 12.386719-57.515625 12.386719h-119.882812c-23.929688 0-42.746094-4.054688-57.515625-12.386719-11.136719-6.285157-20.507813-15.222657-29.039063-27.789063 39.3125-13.636718 79.335938-18.144531 116.046875-19.476562.027344 0 .058594.003906.089844.003906zm-146.894531-33.292969c0-22.894531 18.625-41.519531 41.519531-41.519531h97.875v60.101562c-38.425781 1.792969-80.1875 7.308594-121.292969 22.824219h-10.238281c-2.726563 0-5.132813-1.394531-6.542969-3.511719-.035156-.058593-.070312-.117187-.109375-.175781-.761719-1.214843-1.210937-2.640625-1.210937-4.175781zm-47.015625 177.207031c-10.789063-10.121093-16.730469-22.75-16.730469-35.566406 0-18.667968 12.808594-35.433594 32.835938-44.210937-1.640626 15.8125-.429688 29.953125 2.351562 40.84375.945312 3.707031 2.855469 6.984375 5.492188 9.578125-.023438 1.097656-.035157 2.140625-.035157 3.160156 0 14.421875 2.183594 28.617188 6.402344 42.351562-11.4375-2.738281-21.933594-8.289062-30.316406-16.15625zm36.234375-38.855468c-.171875-.074219-.375-.179688-.582032-.296875-.125-.082031-.246093-.160157-.375-.234375-.875-.589844-1.859374-1.589844-2.285156-3.253906-4.640625-18.171876-4.140625-49.398438 11.105469-80.867188 3.214844 1.726562 6.886719 2.710938 10.785156 2.710938h7.367188c9.90625 15.859374 20.886719 27.246093 34.140625 35.40625-16.175782 18.984374-36.289063 35.960937-55.101563 46.304687-1.566406.859375-3.40625.945313-5.054687.230469zm310.433594 192.527344 9.109374-4.246094c1.722657-.804688 3.558594-1.207032 5.402344-1.207032 1.476563 0 2.957032.257813 4.386719.777344 3.210937 1.171875 5.777344 3.523438 7.222656 6.621094l22.152344 47.5c1.089844 2.339844.074219 5.128906-2.265625 6.21875l-23.832031 11.113281c-2.335938 1.089844-5.128907.074219-6.21875-2.261719l-22.148438-47.503906c-2.980469-6.398437-.203125-14.027344 6.191407-17.011718zm-12.105469-9.988282c-9.667969 7.84375-13.175781 21.554688-7.679688 33.335938l22.148438 47.507812c1.027343 2.203125 2.417969 4.125 4.0625 5.734375h-121.324219v-80.121093c28.335938-1.253907 58.246094-9.523438 85.789062-23.355469 6.125 5.152343 11.808594 10.8125 17.003907 16.898437zm13.433593-53.949218c-10.128906 8.042968-21.074218 15.171874-32.5 21.261718-.285156.125-.5625.273438-.835937.433594-28.917969 15.257812-60.847656 23.890625-90.390625 23.890625-29.539062 0-61.46875-8.632813-90.382812-23.886719-.28125-.167968-.566407-.320312-.863282-.449218-11.417968-6.089844-22.359375-13.214844-32.480468-21.25-38.875-30.867188-60.65625-70.9375-61.585938-113.109376 3.296875-.066406 6.566406-.921874 9.558594-2.566406 21.574218-11.863281 43.777344-30.8125 61.632812-52.488281 15.039063 6.148437 32.886719 9.164063 54.179688 9.164063h119.882812c21.292969 0 39.136719-3.015626 54.179688-9.164063 17.855468 21.675781 40.058594 40.625 61.628906 52.488281 2.996094 1.644532 6.265625 2.5 9.5625 2.566406-.929688 42.171876-22.710938 82.242188-61.585938 113.109376zm67.550782-132.375c-.425782 1.664062-1.410156 2.664062-2.285156 3.253906-.128907.074218-.25.152344-.371094.230468-.210938.121094-.414063.226563-.585938.300782-1.648437.714844-3.488281.628906-5.054687-.230469-18.8125-10.34375-38.925781-27.320313-55.101563-46.304687 13.253906-8.160157 24.234375-19.546876 34.140625-35.410157h7.367188c3.898437 0 7.570312-.980469 10.785156-2.707031 15.246094 31.46875 15.746094 62.695312 11.105469 80.867188zm32.996094 42.640624c-8.386719 7.867188-18.878907 13.417969-30.320313 16.15625 4.21875-13.734374 6.402344-27.929687 6.402344-42.351562 0-1.011719-.011719-2.054688-.035157-3.160156 2.632813-2.59375 4.546876-5.871094 5.492188-9.578125 2.78125-10.894531 3.992188-25.035157 2.351562-40.84375 20.027344 8.777343 32.835938 25.542969 32.835938 44.210937 0 12.816406-5.941406 25.445313-16.726562 35.566406zm-316.085938-54.382812c-4.140625 0-7.5 3.355469-7.5 7.5v15.242188c0 4.140624 3.359375 7.5 7.5 7.5 4.144531 0 7.5-3.359376 7.5-7.5v-15.242188c0-4.144531-3.355469-7.5-7.5-7.5zm0 0"/></svg>