<?xml version="1.0" standalone="no"?>
<!DOCTYPE svg PUBLIC "-//W3C//DTD SVG 20010904//EN"
 "http://www.w3.org/TR/2001/REC-SVG-20010904/DTD/svg10.dtd">
<svg version="1.0" xmlns="http://www.w3.org/2000/svg"
 width="1442.000000pt" height="1207.000000pt" viewBox="0 0 1442.000000 1207.000000"
 preserveAspectRatio="xMidYMid meet">
<metadata>
Created by potrace 1.16, written by Peter Selinger 2001-2019
</metadata>
<g transform="translate(0.000000,1207.000000) scale(0.100000,-0.100000)"
fill="#000000" stroke="none">
<path d="M7085 11719 c-346 -11 -456 -44 -703 -211 -104 -71 -172 -138 -267
-263 -92 -121 -146 -275 -170 -485 -19 -165 -41 -226 -109 -303 -31 -36 -72
-94 -91 -131 l-35 -67 0 -252 c1 -334 1 -337 128 -516 57 -82 101 -210 118
-346 24 -200 34 -250 59 -300 13 -28 31 -71 40 -95 28 -80 145 -293 206 -375
93 -126 306 -334 397 -388 100 -59 209 -102 297 -116 356 -57 431 -57 790 0
104 17 242 76 350 150 58 39 282 271 347 359 58 78 187 316 208 385 7 22 16
45 21 51 27 33 57 177 75 349 7 78 54 231 87 285 11 19 40 60 63 90 23 30 48
69 57 85 29 59 39 183 36 420 l-4 230 -34 60 c-19 33 -60 90 -91 126 -49 57
-60 79 -78 145 -12 44 -25 122 -31 174 -23 242 -96 399 -276 598 -59 65 -243
196 -345 245 -85 41 -219 75 -338 87 -134 13 -445 17 -707 9z m630 -424 c163
-39 301 -100 413 -185 166 -125 204 -208 266 -581 9 -52 16 -112 16 -132 0
-50 61 -167 108 -208 71 -61 82 -90 82 -215 l0 -112 -55 -52 c-55 -54 -125
-170 -125 -209 0 -12 -4 -29 -9 -39 -22 -43 -35 -104 -42 -202 -16 -193 -37
-278 -118 -464 -33 -77 -69 -149 -80 -160 -10 -12 -34 -46 -51 -76 -40 -68
-159 -210 -214 -254 -69 -56 -248 -133 -356 -153 -214 -39 -422 -15 -610 70
-105 47 -122 59 -195 133 -112 114 -218 267 -278 399 -98 219 -122 313 -136
518 -4 65 -13 123 -19 129 -7 7 -12 22 -12 34 0 13 -4 26 -10 29 -5 3 -10 17
-10 31 0 45 -53 137 -117 204 l-63 65 0 110 c0 124 11 153 82 214 48 41 108
158 108 209 0 93 66 412 103 497 40 92 65 124 161 201 133 107 330 189 486
203 96 9 635 5 675 -4z"/>
<path d="M6770 10186 c0 -9 -7 -12 -20 -9 -13 3 -20 0 -20 -8 0 -8 -14 -27
-30 -43 -87 -81 -108 -190 -54 -269 67 -97 250 -143 386 -98 90 30 137 80 157
171 8 36 6 51 -13 94 -25 55 -86 118 -138 139 -32 13 -187 37 -241 37 -17 0
-27 -5 -27 -14z"/>
<path d="M7730 10181 c-89 -14 -173 -79 -207 -160 -17 -40 -11 -116 12 -160
61 -117 263 -156 419 -81 93 44 126 90 126 175 0 50 -5 69 -29 107 -67 105
-166 142 -321 119z"/>
<path d="M7285 7445 c-53 -19 -120 -91 -135 -145 -8 -30 -11 -240 -9 -744 2
-386 0 -706 -4 -713 -4 -6 -18 -14 -31 -17 -13 -3 -45 -15 -70 -26 -26 -11
-49 -19 -53 -19 -3 0 -9 -3 -12 -8 -3 -5 -34 -28 -67 -51 -82 -55 -191 -176
-234 -259 -19 -38 -39 -71 -43 -74 -5 -3 -9 -10 -9 -15 0 -5 -4 -20 -9 -32
-29 -77 -41 -168 -36 -290 2 -70 8 -137 12 -149 6 -19 -1 -27 -55 -60 -34 -21
-121 -76 -193 -122 -73 -46 -141 -88 -151 -95 -10 -6 -30 -21 -44 -33 -14 -13
-33 -23 -43 -23 -11 0 -19 -4 -19 -9 0 -6 -27 -23 -60 -40 -33 -17 -78 -43
-101 -58 -68 -45 -110 -71 -179 -109 -36 -20 -91 -52 -122 -71 -32 -18 -95
-52 -140 -75 -138 -68 -182 -125 -181 -236 0 -35 6 -69 12 -75 6 -6 11 -17 11
-24 0 -8 17 -31 38 -53 46 -46 103 -64 184 -58 46 3 68 12 125 50 37 25 88 56
113 68 25 13 90 51 145 85 55 34 116 71 135 81 19 10 39 25 43 31 4 7 15 13
22 13 8 0 15 5 15 10 0 6 4 10 10 10 12 0 343 193 455 266 49 33 117 75 151
95 l61 36 30 -26 c30 -26 124 -94 133 -96 3 -1 27 -11 53 -23 142 -64 349 -81
503 -42 99 25 206 77 290 141 l65 50 57 -32 c31 -18 307 -186 612 -372 551
-338 555 -340 615 -343 71 -3 108 10 163 61 56 50 72 118 47 195 -10 29 -33
70 -51 90 -34 37 -385 258 -496 312 -32 15 -66 36 -76 46 -22 22 -265 172
-278 172 -13 0 -184 105 -292 178 -75 51 -83 59 -77 82 3 14 9 80 12 147 7
158 -10 238 -83 383 -45 91 -68 123 -137 193 -90 91 -202 165 -295 195 l-57
19 3 702 c3 515 1 715 -8 751 -16 67 -75 133 -137 154 -56 19 -76 19 -128 1z
m170 -1917 c146 -37 279 -174 321 -333 81 -302 -178 -612 -479 -573 -89 11
-141 40 -221 120 -126 128 -184 280 -158 418 35 189 199 354 377 379 62 8 91
6 160 -11z"/>
<path d="M10758 4365 c-2 -1 -28 -5 -58 -8 -70 -7 -131 -19 -300 -59 -102 -24
-158 -43 -228 -80 -51 -26 -99 -54 -107 -60 -7 -7 -25 -22 -41 -33 -40 -28
-128 -116 -150 -150 -21 -32 -45 -62 -91 -110 -33 -36 -173 -258 -173 -275 0
-6 -7 -22 -16 -35 -9 -14 -13 -25 -10 -25 4 0 1 -12 -7 -27 -8 -16 -23 -46
-32 -68 -10 -22 -24 -51 -31 -65 -14 -29 -40 -126 -50 -190 -21 -143 0 -325
61 -512 14 -44 25 -87 25 -97 0 -9 4 -21 9 -27 4 -5 16 -31 26 -59 17 -45 131
-263 144 -275 4 -3 20 -25 36 -50 17 -25 35 -49 41 -55 7 -5 23 -28 37 -50 27
-44 25 -43 177 -178 8 -7 31 -24 50 -38 19 -13 42 -31 51 -39 9 -8 28 -24 42
-35 13 -12 29 -31 36 -43 6 -12 25 -36 41 -52 17 -17 30 -35 30 -40 0 -5 6
-15 13 -22 7 -7 26 -47 42 -88 16 -41 38 -91 50 -110 38 -59 130 -130 321
-247 151 -93 194 -114 240 -122 64 -10 134 -8 214 7 45 8 115 9 115 2 0 -2 12
-5 51 -13 11 -3 38 -13 60 -23 21 -9 45 -18 51 -20 7 -1 35 -16 63 -33 28 -17
59 -31 70 -31 12 0 36 -7 55 -14 19 -8 35 -12 35 -9 0 3 7 0 15 -7 8 -7 15
-10 15 -8 0 3 26 -1 58 -8 126 -30 413 4 542 63 144 66 247 120 266 138 11 11
36 31 54 45 29 22 88 79 133 131 9 10 24 30 33 46 10 15 23 33 31 39 17 15
413 662 413 676 0 6 10 27 22 47 13 20 23 38 23 41 0 3 9 28 19 55 29 78 29
79 32 95 2 8 5 31 8 50 2 19 8 46 13 60 24 65 -8 467 -38 486 -5 3 -9 13 -9
22 0 36 -63 180 -108 247 -26 39 -73 96 -104 128 -32 32 -58 62 -58 66 0 4
-17 17 -38 29 -43 24 -72 47 -146 117 -63 60 -79 84 -101 150 -33 98 -78 189
-109 220 -32 32 -406 265 -425 265 -6 0 -19 4 -29 9 -74 38 -81 39 -292 31
-50 -2 -101 2 -123 9 -20 7 -49 14 -65 15 -38 4 -46 8 -197 78 -38 18 -72 33
-75 33 -3 0 -27 9 -55 19 -27 10 -57 21 -65 24 -8 2 -33 6 -55 8 -35 3 -76 10
-125 20 -43 10 -344 26 -352 19z m255 -438 c26 -3 67 -9 90 -13 23 -4 54 -9
70 -10 15 -1 28 -2 30 -4 1 -1 15 -4 32 -6 16 -3 34 -9 40 -13 5 -5 24 -11 40
-15 17 -4 49 -16 71 -27 23 -11 51 -21 61 -23 11 -3 42 -18 69 -34 27 -16 67
-35 89 -42 22 -7 54 -18 70 -24 17 -6 36 -9 43 -8 8 2 19 -1 25 -6 28 -23 172
-30 232 -12 83 25 92 24 191 -37 74 -45 97 -64 106 -90 7 -18 15 -33 19 -33 3
0 9 -24 12 -52 4 -29 15 -64 25 -78 11 -14 22 -35 26 -46 9 -28 43 -66 81 -89
17 -10 37 -24 45 -32 55 -50 103 -91 130 -113 17 -14 59 -54 93 -88 86 -89 89
-92 82 -92 -5 0 3 -12 32 -44 19 -22 52 -112 60 -164 11 -77 6 -357 -7 -357
-1 0 -3 -11 -6 -25 -2 -14 -7 -32 -11 -40 -3 -8 -8 -26 -10 -40 -5 -34 -112
-246 -138 -274 -30 -32 -105 -153 -105 -168 0 -7 -20 -42 -45 -78 -24 -36 -56
-83 -71 -105 -36 -54 -139 -152 -200 -192 -10 -7 -36 -24 -57 -38 -61 -40
-108 -62 -206 -94 -78 -26 -103 -30 -164 -26 -84 6 -119 11 -167 27 -19 7 -37
13 -40 13 -9 3 -60 22 -115 45 -16 6 -32 12 -35 12 -3 0 -14 5 -25 11 -11 6
-26 12 -33 13 -7 1 -45 19 -85 39 -58 30 -86 38 -141 42 -39 2 -72 5 -74 8 -2
2 -25 -5 -50 -16 -74 -32 -121 -23 -228 41 -93 56 -108 73 -118 138 -4 29 -45
121 -79 177 -20 34 -139 146 -193 182 -27 18 -79 61 -115 96 -36 34 -79 74
-95 88 -16 14 -38 38 -49 53 -11 16 -26 34 -33 42 -7 8 -11 14 -7 14 3 0 -5
12 -19 26 -13 15 -30 38 -38 53 -7 14 -21 35 -31 46 -10 11 -29 44 -43 75 -30
64 -33 70 -63 130 -13 25 -27 52 -32 61 -4 9 -11 34 -15 55 -3 22 -10 44 -15
50 -20 25 -40 160 -33 219 4 33 9 74 10 90 4 57 16 110 41 175 39 101 102 224
131 257 15 16 45 51 67 77 80 95 93 106 216 185 82 53 140 77 213 85 26 3 51
8 55 11 5 2 37 7 72 10 35 4 64 7 66 8 3 4 208 -2 256 -6z"/>
<path d="M11715 3248 c-28 -11 -38 -17 -70 -46 -8 -7 -15 -11 -15 -8 0 15 -81
-80 -86 -100 -3 -13 -10 -24 -15 -24 -4 0 -14 -19 -20 -42 -7 -24 -16 -48 -20
-53 -14 -19 -2 -135 15 -154 9 -10 16 -21 16 -26 0 -8 70 -74 80 -76 3 0 14
-2 25 -5 75 -14 155 2 218 46 35 24 110 121 113 147 2 9 8 19 14 23 6 4 10 11
9 16 -4 14 12 58 25 66 8 6 7 8 -1 8 -7 0 -13 9 -13 20 0 30 -38 132 -52 142
-7 4 -9 8 -3 8 5 0 -15 16 -45 35 -59 37 -115 44 -175 23z"/>
<path d="M11235 2484 c-46 -15 -103 -73 -152 -155 -45 -72 -56 -109 -55 -184
0 -85 20 -125 81 -166 50 -34 59 -36 115 -32 120 7 163 37 245 168 40 64 44
76 44 135 0 36 -2 74 -5 85 -7 32 -41 95 -50 95 -5 0 -7 4 -4 8 4 8 -34 31
-79 48 -32 12 -103 11 -140 -2z"/>
<path d="M3637 4343 c-2 -2 -24 -6 -48 -9 -24 -3 -51 -8 -59 -10 -8 -3 -37 -8
-65 -10 -73 -7 -85 -10 -137 -33 -27 -11 -48 -18 -48 -15 0 3 -12 -1 -27 -9
-16 -8 -50 -24 -78 -37 -27 -13 -62 -29 -77 -37 -15 -7 -44 -15 -65 -17 -21
-3 -38 -5 -38 -6 0 -1 -7 -3 -15 -5 -83 -21 -126 -22 -255 -10 -54 5 -95 3
-125 -5 -25 -7 -47 -12 -50 -12 -3 0 -14 -7 -25 -14 -11 -8 -26 -14 -33 -14
-8 0 -103 -52 -212 -116 -163 -97 -202 -124 -221 -156 -13 -21 -31 -47 -40
-58 -9 -11 -24 -46 -34 -77 -10 -32 -21 -62 -26 -68 -5 -5 -9 -17 -9 -27 0
-22 -7 -30 -76 -101 -67 -67 -84 -81 -147 -120 -29 -17 -54 -35 -56 -40 -1 -4
-31 -37 -65 -71 -33 -35 -68 -74 -76 -86 -8 -12 -23 -31 -32 -42 -10 -11 -20
-29 -23 -39 -4 -11 -11 -19 -16 -19 -5 0 -8 -3 -7 -7 0 -5 -3 -17 -7 -28 -20
-49 -47 -121 -49 -130 -6 -27 -28 -102 -33 -115 -24 -61 -37 -344 -19 -440 10
-58 14 -75 16 -75 2 0 4 -11 13 -50 15 -65 88 -222 161 -344 30 -52 53 -99 49
-105 -3 -6 -3 -8 2 -4 8 8 84 -107 85 -129 0 -6 4 -13 8 -15 4 -1 43 -63 86
-136 43 -73 89 -144 102 -159 13 -14 24 -29 24 -33 0 -7 25 -37 83 -100 50
-53 167 -150 182 -150 7 0 15 -4 17 -8 2 -7 166 -91 188 -97 3 -1 19 -7 35
-14 39 -17 109 -35 219 -56 85 -16 236 -17 306 -1 14 3 39 9 55 12 17 3 35 9
40 12 11 7 30 12 60 16 11 1 58 21 105 43 75 36 120 53 195 71 28 7 71 6 135
-3 67 -10 184 -12 225 -3 40 8 418 232 464 274 78 73 64 51 150 237 17 37 51
88 75 112 24 25 41 45 38 45 -12 0 98 97 141 124 16 9 37 25 46 34 10 9 30 26
45 37 50 38 102 91 123 126 12 19 34 48 48 64 14 17 38 48 53 70 15 22 30 42
35 43 4 2 5 8 1 13 -3 5 -1 9 5 9 5 0 15 16 22 35 7 19 16 35 19 35 14 0 105
199 132 290 70 232 88 324 87 430 0 98 -4 165 -9 165 -1 0 -3 14 -5 30 -1 17
-4 31 -5 33 -1 1 -3 5 -4 10 -5 19 -18 59 -28 82 -28 67 -39 93 -52 123 -8 17
-22 52 -31 77 -18 48 -124 234 -153 268 -9 11 -28 34 -42 51 -14 17 -34 42
-45 56 -11 13 -31 38 -45 56 -25 32 -115 124 -142 145 -8 6 -34 24 -59 40 -24
16 -47 33 -50 37 -3 5 -8 8 -10 7 -2 0 -33 12 -69 28 -76 34 -310 97 -445 119
-35 6 -383 11 -388 6z m464 -452 c102 -21 179 -48 191 -65 4 -6 8 -7 8 -3 0 4
10 -2 23 -13 12 -12 39 -30 59 -41 20 -10 42 -27 47 -36 6 -10 11 -14 11 -9 0
10 44 -35 105 -108 22 -27 47 -56 56 -65 25 -27 89 -137 89 -153 0 -7 7 -24
16 -36 8 -12 13 -22 9 -22 -3 0 1 -13 10 -30 9 -16 13 -30 9 -30 -4 0 -1 -6 5
-14 7 -8 14 -25 17 -37 9 -40 12 -54 14 -54 4 0 8 -41 14 -151 7 -117 6 -124
-23 -210 -49 -145 -60 -172 -90 -227 -16 -28 -32 -63 -36 -77 -4 -14 -23 -46
-41 -71 -19 -26 -34 -50 -34 -54 0 -4 -8 -15 -18 -24 -10 -9 -33 -37 -50 -63
-44 -64 -202 -218 -224 -218 -5 0 -7 -4 -4 -8 3 -4 -22 -23 -55 -41 -32 -18
-59 -36 -59 -40 0 -4 -11 -14 -25 -21 -13 -7 -27 -21 -30 -30 -3 -9 -17 -22
-30 -28 -14 -6 -25 -16 -25 -22 0 -6 -15 -26 -33 -44 -42 -41 -94 -143 -102
-198 -4 -24 -11 -46 -17 -49 -5 -3 -8 -10 -6 -15 1 -5 -38 -34 -89 -65 -80
-49 -99 -56 -145 -56 -29 -1 -59 4 -67 10 -8 7 -56 13 -115 14 -95 2 -104 0
-146 -26 -37 -23 -68 -36 -110 -46 -3 0 -15 -6 -27 -13 -13 -7 -23 -10 -23 -7
0 4 -16 -3 -35 -15 -19 -12 -35 -19 -35 -16 0 3 -17 -2 -37 -10 -33 -14 -45
-18 -88 -27 -5 -2 -15 -6 -21 -9 -13 -9 -81 -18 -161 -22 -63 -4 -131 13 -220
55 -24 10 -47 19 -52 19 -5 0 -37 19 -72 42 -84 56 -84 56 -135 105 -24 23
-44 40 -44 37 0 -11 -63 61 -97 113 -66 97 -102 156 -100 162 3 10 -86 161
-95 161 -7 0 -81 127 -76 132 1 2 -12 29 -31 61 -18 31 -29 57 -26 57 4 0 3 6
-3 13 -5 6 -13 26 -15 42 -7 38 -15 72 -21 93 -17 56 -23 213 -11 297 4 28 8
57 9 65 6 47 19 90 27 90 5 0 9 9 9 20 0 11 8 28 18 38 9 10 24 30 32 46 20
38 140 156 225 221 15 11 42 34 60 52 19 17 53 43 77 57 24 14 50 35 58 47 8
12 20 27 27 34 7 7 9 15 6 18 -3 3 1 13 8 21 29 32 34 42 37 76 3 48 21 100
34 100 6 0 8 3 5 6 -10 10 26 38 117 91 85 50 96 52 177 28 48 -14 208 -13
231 1 7 5 22 9 33 11 31 3 130 40 169 64 20 11 36 17 36 12 0 -4 4 -2 9 6 5 8
17 16 25 18 22 4 38 9 61 17 175 66 186 68 327 80 15 1 30 5 34 8 3 4 87 5
187 3 135 -2 207 -9 278 -24z"/>
<path d="M2797 3232 c-26 -15 -53 -39 -60 -54 -6 -16 -16 -28 -20 -28 -5 0 -6
-4 -2 -9 3 -5 1 -12 -4 -15 -11 -7 -20 -56 -25 -136 -3 -35 -1 -48 4 -35 8 19
11 18 14 -5 0 -6 21 -46 46 -89 33 -58 56 -86 88 -107 49 -30 132 -53 177 -47
40 5 106 34 100 44 -3 4 4 10 15 14 11 4 18 11 15 16 -4 5 -3 9 2 9 19 0 45
91 40 138 -8 67 -10 73 -39 123 -15 25 -28 52 -30 59 -3 13 -50 63 -93 98 -23
20 -119 52 -152 52 -16 0 -49 -13 -76 -28z"/>
<path d="M3295 2480 c-4 -6 -10 -8 -14 -5 -14 8 -75 -39 -91 -70 -8 -17 -18
-32 -21 -35 -11 -9 -23 -93 -21 -143 1 -27 9 -59 18 -72 9 -13 17 -30 18 -37
5 -23 29 -68 37 -68 5 0 13 -10 19 -22 11 -22 10 -22 -4 -4 -20 25 -20 14 -1
-24 16 -32 30 -38 38 -17 3 6 6 2 6 -10 1 -22 31 -35 31 -14 0 5 13 3 30 -5
16 -9 58 -16 92 -17 80 -1 157 37 183 93 34 70 19 236 -27 289 -9 11 -14 21
-12 24 3 3 -22 32 -54 65 -63 64 -102 82 -179 82 -23 0 -45 -5 -48 -10z"/>
</g>
</svg>
