<?xml version="1.0" standalone="no"?>
<!DOCTYPE svg PUBLIC "-//W3C//DTD SVG 20010904//EN"
 "http://www.w3.org/TR/2001/REC-SVG-20010904/DTD/svg10.dtd">
<svg version="1.0" xmlns="http://www.w3.org/2000/svg"
 width="1778.000000pt" height="276.000000pt" viewBox="0 0 1778.000000 276.000000"
 preserveAspectRatio="xMidYMid meet">
<metadata>
Created by potrace 1.16, written by Peter Selinger 2001-2019
</metadata>
<g transform="translate(0.000000,276.000000) scale(0.100000,-0.100000)"
fill="white" stroke="none">
<path d="M599 2535 c-223 -42 -415 -155 -511 -302 -63 -96 -79 -149 -85 -278
l-5 -110 576 -435 576 -435 -27 -23 c-82 -66 -198 -96 -348 -89 -216 9 -365
90 -365 197 l0 30 -205 0 -205 0 0 -53 c0 -123 57 -251 154 -346 76 -75 116
-103 221 -152 138 -65 233 -83 425 -83 201 0 293 19 449 95 87 43 116 63 186
132 121 121 165 227 165 401 l0 71 -575 435 c-640 484 -595 440 -496 493 66
36 169 58 271 58 212 0 390 -90 390 -198 l0 -33 205 0 205 0 0 43 c0 65 -26
169 -56 228 -54 108 -201 234 -340 292 -124 52 -208 69 -374 73 -107 2 -178
-1 -231 -11z"/>
<path d="M10936 2535 c-222 -46 -392 -143 -498 -282 -69 -92 -90 -156 -96
-293 l-4 -115 576 -435 576 -435 -22 -19 c-108 -88 -317 -121 -492 -76 -141
36 -218 92 -231 170 l-7 40 -200 0 -201 0 6 -83 c6 -102 33 -173 98 -260 147
-196 428 -307 744 -294 255 10 444 86 595 237 112 112 160 230 160 395 l0 70
-575 434 c-641 484 -596 440 -497 494 232 125 662 33 662 -142 l0 -31 205 0
205 0 0 38 c0 60 -28 172 -57 232 -17 35 -56 84 -108 137 -70 69 -99 89 -186
132 -153 74 -232 92 -424 96 -113 3 -180 0 -229 -10z"/>
<path d="M2700 2534 c-70 -9 -206 -47 -280 -78 -151 -64 -305 -185 -411 -325
-66 -87 -152 -264 -181 -371 -19 -73 -22 -110 -22 -260 0 -204 15 -281 90
-439 165 -351 490 -572 877 -597 206 -13 441 43 598 142 l42 26 66 -66 67 -66
287 0 c158 0 287 3 287 7 0 4 -93 100 -206 214 l-205 206 36 62 c43 74 89 195
112 295 20 88 23 325 4 411 -58 277 -210 508 -437 665 -167 116 -339 170 -554
175 -74 2 -151 1 -170 -1z m330 -433 c193 -66 336 -207 404 -401 27 -75 30
-99 31 -195 0 -87 -5 -125 -22 -180 -13 -38 -27 -77 -33 -85 -8 -12 -90 65
-425 402 -228 229 -415 421 -415 426 0 8 88 40 155 56 11 3 70 4 130 2 81 -2
127 -9 175 -25z m72 -1172 c-21 -21 -147 -51 -228 -56 -300 -18 -572 181 -649
477 -31 119 -16 300 32 394 l15 29 419 -419 c230 -230 415 -422 411 -425z"/>
<path d="M4242 1828 c4 -746 2 -718 73 -874 295 -646 1208 -678 1544 -53 22
41 52 115 68 164 l28 90 3 673 3 672 -206 0 -205 0 0 -457 0 -458 -451 458
-451 457 -204 0 -205 0 3 -672z m916 -367 c193 -189 352 -351 352 -359 0 -21
-38 -81 -79 -125 -42 -45 -102 -78 -185 -102 -81 -24 -229 -17 -309 15 -108
41 -214 148 -259 260 -22 53 -23 69 -26 430 l-3 374 78 -74 c43 -41 237 -230
431 -419z"/>
<path d="M6510 1515 c-231 -542 -423 -992 -427 -1000 -4 -13 27 -15 218 -15
l224 0 80 191 c44 105 85 193 90 195 6 2 242 -83 525 -191 l514 -195 219 0
c205 0 219 1 215 18 -3 9 -193 459 -424 1000 l-419 982 -197 0 -196 0 -422
-985z m809 -40 c98 -225 177 -411 175 -413 -5 -7 -624 242 -622 249 2 5 59
141 128 304 81 191 128 291 133 283 5 -7 88 -197 186 -423z"/>
<path d="M8320 2158 l0 -343 452 -452 453 -453 -247 0 -248 0 -2 197 -3 198
-202 3 -203 2 0 -405 0 -406 488 3 487 4 95 26 c301 83 531 275 661 552 64
137 83 234 83 416 0 189 -20 286 -93 435 -114 233 -308 410 -550 501 -157 59
-212 64 -717 64 l-454 0 0 -342z m964 -84 c163 -42 312 -164 384 -316 47 -97
62 -161 62 -261 0 -118 -48 -262 -114 -342 l-25 -30 -430 430 -431 430 0 52 0
53 246 0 c192 0 260 -3 308 -16z"/>
<path d="M12110 2295 l0 -205 310 0 310 0 0 -95 0 -95 -270 0 -270 0 0 -205 0
-205 270 0 270 0 0 -495 0 -495 200 0 200 0 0 495 0 495 270 0 270 0 0 205 0
205 -270 0 -270 0 0 95 0 95 310 0 310 0 0 205 0 205 -820 0 -820 0 0 -205z"/>
<path d="M13970 2299 l0 -200 125 -190 c69 -105 125 -192 125 -195 0 -2 -56
-4 -125 -4 l-125 0 0 -605 0 -605 771 0 c613 0 769 3 763 13 -5 6 -122 185
-262 397 l-253 385 195 3 196 2 0 205 0 205 -332 1 -333 0 -122 187 -123 187
495 3 495 2 0 205 0 205 -745 0 -745 0 0 -201z m579 -1082 c30 -45 88 -133
128 -194 l73 -113 -185 0 -185 0 0 195 0 195 58 0 57 0 54 -83z"/>
<path d="M15730 2293 l0 -208 219 -290 219 -290 -219 -3 -219 -2 0 -500 0
-500 205 0 205 0 0 300 0 300 168 0 169 0 133 -177 c91 -121 133 -185 132
-200 -1 -17 4 -23 18 -23 13 0 45 -33 95 -100 l76 -100 255 0 255 0 -18 32
c-10 18 -25 39 -34 48 -9 8 -73 90 -143 181 -93 124 -122 168 -111 173 8 3 15
10 15 16 0 16 -31 25 -39 12 -6 -10 -108 115 -144 174 -5 9 14 24 65 51 112
58 221 172 280 293 101 205 104 428 8 625 -87 178 -224 298 -415 363 l-80 27
-547 3 -548 3 0 -208z m1062 -223 c100 -37 177 -142 185 -253 12 -147 -98
-283 -246 -306 l-47 -7 -215 284 c-118 156 -215 288 -217 293 -2 5 101 9 242
9 220 0 251 -2 298 -20z"/>
</g>
</svg>
